bend_the_leg_backward coordinate motion generated from LLM joint_angles
version=1
nRows=21
nColumns=36
inDegrees=yes
endheader
time	pelvis_tilt	pelvis_list	pelvis_rotation	pelvis_tx	pelvis_ty	pelvis_tz	hip_flexion_r	hip_adduction_r	hip_rotation_r	knee_angle_r	knee_angle_r_beta	ankle_angle_r	subtalar_angle_r	mtp_angle_r	hip_flexion_l	hip_adduction_l	hip_rotation_l	knee_angle_l	knee_angle_l_beta	ankle_angle_l	subtalar_angle_l	mtp_angle_l	lumbar_extension	lumbar_bending	lumbar_rotation	arm_flex_r	arm_add_r	arm_rot_r	elbow_flex_r	pro_sup_r	arm_flex_l	arm_add_l	arm_rot_l	elbow_flex_l	pro_sup_l
0.000000	0.000000	0.000000	0.000000	0.000000	0.000000	0.000000	-0.000000	0.000000	0.000000	0.000000	0.000000	-0.000000	0.000000	0.000000	-0.000000	0.000000	0.000000	0.000000	0.000000	-0.000000	0.000000	0.000000	0.000000	0.000000	0.000000	0.000000	0.000000	0.000000	0.000000	0.000000	0.000000	0.000000	0.000000	0.000000	0.000000
0.006667	0.000000	0.000000	0.000000	0.000000	0.000000	0.000000	-0.418848	0.000000	0.000000	1.884818	0.000000	-0.209424	0.000000	0.000000	-0.418848	0.000000	0.000000	1.884818	0.000000	-0.209424	0.000000	0.000000	0.000000	0.000000	0.000000	0.000000	0.000000	0.000000	0.000000	0.000000	0.000000	0.000000	0.000000	0.000000	0.000000
0.013333	0.000000	0.000000	0.000000	0.000000	0.000000	0.000000	-0.837513	0.000000	0.000000	3.768809	0.000000	-0.418757	0.000000	0.000000	-0.837513	0.000000	0.000000	3.768809	0.000000	-0.418757	0.000000	0.000000	0.000000	0.000000	0.000000	0.000000	0.000000	0.000000	0.000000	0.000000	0.000000	0.000000	0.000000	0.000000	0.000000
0.020000	0.000000	0.000000	0.000000	0.000000	0.000000	0.000000	-1.255810	0.000000	0.000000	5.651147	0.000000	-0.627905	0.000000	0.000000	-1.255810	0.000000	0.000000	5.651147	0.000000	-0.627905	0.000000	0.000000	0.000000	0.000000	0.000000	0.000000	0.000000	0.000000	0.000000	0.000000	0.000000	0.000000	0.000000	0.000000	0.000000
0.026667	0.000000	0.000000	0.000000	0.000000	0.000000	0.000000	-1.673557	0.000000	0.000000	7.531006	0.000000	-0.836778	0.000000	0.000000	-1.673557	0.000000	0.000000	7.531006	0.000000	-0.836778	0.000000	0.000000	0.000000	0.000000	0.000000	0.000000	0.000000	0.000000	0.000000	0.000000	0.000000	0.000000	0.000000	0.000000	0.000000
0.033333	0.000000	0.000000	0.000000	0.000000	0.000000	0.000000	-2.090569	0.000000	0.000000	9.407562	0.000000	-1.045285	0.000000	0.000000	-2.090569	0.000000	0.000000	9.407562	0.000000	-1.045285	0.000000	0.000000	0.000000	0.000000	0.000000	0.000000	0.000000	0.000000	0.000000	0.000000	0.000000	0.000000	0.000000	0.000000	0.000000
0.040000	0.000000	0.000000	0.000000	0.000000	0.000000	0.000000	-2.506665	0.000000	0.000000	11.279991	0.000000	-1.253332	0.000000	0.000000	-2.506665	0.000000	0.000000	11.279991	0.000000	-1.253332	0.000000	0.000000	0.000000	0.000000	0.000000	0.000000	0.000000	0.000000	0.000000	0.000000	0.000000	0.000000	0.000000	0.000000	0.000000
0.046667	0.000000	0.000000	0.000000	0.000000	0.000000	0.000000	-2.921661	0.000000	0.000000	13.147473	0.000000	-1.460830	0.000000	0.000000	-2.921661	0.000000	0.000000	13.147473	0.000000	-1.460830	0.000000	0.000000	0.000000	0.000000	0.000000	0.000000	0.000000	0.000000	0.000000	0.000000	0.000000	0.000000	0.000000	0.000000	0.000000
0.053333	0.000000	0.000000	0.000000	0.000000	0.000000	0.000000	-3.335375	0.000000	0.000000	15.009187	0.000000	-1.667687	0.000000	0.000000	-3.335375	0.000000	0.000000	15.009187	0.000000	-1.667687	0.000000	0.000000	0.000000	0.000000	0.000000	0.000000	0.000000	0.000000	0.000000	0.000000	0.000000	0.000000	0.000000	0.000000	0.000000
0.060000	0.000000	0.000000	0.000000	0.000000	0.000000	0.000000	-3.747626	0.000000	0.000000	16.864318	0.000000	-1.873813	0.000000	0.000000	-3.747626	0.000000	0.000000	16.864318	0.000000	-1.873813	0.000000	0.000000	0.000000	0.000000	0.000000	0.000000	0.000000	0.000000	0.000000	0.000000	0.000000	0.000000	0.000000	0.000000	0.000000
0.066667	0.000000	0.000000	0.000000	0.000000	0.000000	0.000000	-4.158234	0.000000	0.000000	18.712052	0.000000	-2.079117	0.000000	0.000000	-4.158234	0.000000	0.000000	18.712052	0.000000	-2.079117	0.000000	0.000000	0.000000	0.000000	0.000000	0.000000	0.000000	0.000000	0.000000	0.000000	0.000000	0.000000	0.000000	0.000000	0.000000
0.073333	0.000000	0.000000	0.000000	0.000000	0.000000	0.000000	-4.567017	0.000000	0.000000	20.551578	0.000000	-2.283509	0.000000	0.000000	-4.567017	0.000000	0.000000	20.551578	0.000000	-2.283509	0.000000	0.000000	0.000000	0.000000	0.000000	0.000000	0.000000	0.000000	0.000000	0.000000	0.000000	0.000000	0.000000	0.000000	0.000000
0.080000	0.000000	0.000000	0.000000	0.000000	0.000000	0.000000	-4.973798	0.000000	0.000000	22.382090	0.000000	-2.486899	0.000000	0.000000	-4.973798	0.000000	0.000000	22.382090	0.000000	-2.486899	0.000000	0.000000	0.000000	0.000000	0.000000	0.000000	0.000000	0.000000	0.000000	0.000000	0.000000	0.000000	0.000000	0.000000	0.000000
0.086667	0.000000	0.000000	0.000000	0.000000	0.000000	0.000000	-5.378396	0.000000	0.000000	24.202784	0.000000	-2.689198	0.000000	0.000000	-5.378396	0.000000	0.000000	24.202784	0.000000	-2.689198	0.000000	0.000000	0.000000	0.000000	0.000000	0.000000	0.000000	0.000000	0.000000	0.000000	0.000000	0.000000	0.000000	0.000000	0.000000
0.093333	0.000000	0.000000	0.000000	0.000000	0.000000	0.000000	-5.780636	0.000000	0.000000	26.012862	0.000000	-2.890318	0.000000	0.000000	-5.780636	0.000000	0.000000	26.012862	0.000000	-2.890318	0.000000	0.000000	0.000000	0.000000	0.000000	0.000000	0.000000	0.000000	0.000000	0.000000	0.000000	0.000000	0.000000	0.000000	0.000000
0.100000	0.000000	0.000000	0.000000	0.000000	0.000000	0.000000	-6.180340	0.000000	0.000000	27.811529	0.000000	-3.090170	0.000000	0.000000	-6.180340	0.000000	0.000000	27.811529	0.000000	-3.090170	0.000000	0.000000	0.000000	0.000000	0.000000	0.000000	0.000000	0.000000	0.000000	0.000000	0.000000	0.000000	0.000000	0.000000	0.000000
0.106667	0.000000	0.000000	0.000000	0.000000	0.000000	0.000000	-6.577333	0.000000	0.000000	29.597998	0.000000	-3.288666	0.000000	0.000000	-6.577333	0.000000	0.000000	29.597998	0.000000	-3.288666	0.000000	0.000000	0.000000	0.000000	0.000000	0.000000	0.000000	0.000000	0.000000	0.000000	0.000000	0.000000	0.000000	0.000000	0.000000
0.113333	0.000000	0.000000	0.000000	0.000000	0.000000	0.000000	-6.971441	0.000000	0.000000	31.371484	0.000000	-3.485720	0.000000	0.000000	-6.971441	0.000000	0.000000	31.371484	0.000000	-3.485720	0.000000	0.000000	0.000000	0.000000	0.000000	0.000000	0.000000	0.000000	0.000000	0.000000	0.000000	0.000000	0.000000	0.000000	0.000000
0.120000	0.000000	0.000000	0.000000	0.000000	0.000000	0.000000	-7.362491	0.000000	0.000000	33.131210	0.000000	-3.681246	0.000000	0.000000	-7.362491	0.000000	0.000000	33.131210	0.000000	-3.681246	0.000000	0.000000	0.000000	0.000000	0.000000	0.000000	0.000000	0.000000	0.000000	0.000000	0.000000	0.000000	0.000000	0.000000	0.000000
0.126667	0.000000	0.000000	0.000000	0.000000	0.000000	0.000000	-7.750312	0.000000	0.000000	34.876403	0.000000	-3.875156	0.000000	0.000000	-7.750312	0.000000	0.000000	34.876403	0.000000	-3.875156	0.000000	0.000000	0.000000	0.000000	0.000000	0.000000	0.000000	0.000000	0.000000	0.000000	0.000000	0.000000	0.000000	0.000000	0.000000
0.133333	0.000000	0.000000	0.000000	0.000000	0.000000	0.000000	-8.134733	0.000000	0.000000	36.606298	0.000000	-4.067366	0.000000	0.000000	-8.134733	0.000000	0.000000	36.606298	0.000000	-4.067366	0.000000	0.000000	0.000000	0.000000	0.000000	0.000000	0.000000	0.000000	0.000000	0.000000	0.000000	0.000000	0.000000	0.000000	0.000000
